<?xml version="1.0" standalone="no"?>
<!DOCTYPE svg PUBLIC "-//W3C//DTD SVG 20010904//EN"
 "http://www.w3.org/TR/2001/REC-SVG-20010904/DTD/svg10.dtd">
<svg version="1.0" xmlns="http://www.w3.org/2000/svg"
 width="192.000000pt" height="192.000000pt" viewBox="0 0 192.000000 192.000000"
 preserveAspectRatio="xMidYMid meet">
<metadata>
Created by potrace 1.11, written by Peter Selinger 2001-2013
</metadata>
<g transform="translate(0.000000,192.000000) scale(0.100000,-0.100000)"
fill="#000000" stroke="none">
<path d="M1495 1263 c-125 -67 -307 -275 -364 -417 -17 -40 -31 -58 -60 -74
-74 -42 -89 -21 -50 69 17 40 19 52 9 64 -21 25 -71 17 -140 -25 -64 -38 -65
-38 -83 -19 -22 23 -27 22 -151 -32 -49 -21 -90 -39 -91 -39 -2 0 2 14 8 30
19 51 2 65 -75 64 -103 -3 -368 -116 -368 -158 0 -7 6 -19 14 -25 11 -10 33
-3 103 32 95 48 233 101 241 93 3 -3 -18 -35 -47 -72 -28 -37 -51 -70 -51 -75
0 -14 31 -39 49 -39 9 0 53 23 96 51 44 28 102 62 129 76 43 22 48 22 41 6 -5
-10 -9 -34 -9 -53 -1 -55 32 -53 97 5 28 26 71 60 94 77 l43 29 0 -55 c0 -47
4 -57 26 -75 36 -28 74 -26 142 8 54 27 59 27 92 13 25 -10 61 -13 126 -10 96
4 124 15 124 49 0 22 -9 22 -96 10 -67 -10 -114 -5 -114 13 0 6 30 34 66 61
76 57 203 198 252 278 71 117 43 192 -53 140z m-16 -120 c-52 -84 -230 -266
-245 -251 -2 3 17 34 43 68 53 70 212 234 220 226 3 -3 -5 -22 -18 -43z"/>
<path d="M1566 978 c-52 -30 -80 -79 -80 -138 0 -130 147 -204 250 -125 116
88 62 270 -83 282 -37 3 -57 -1 -87 -19z m132 -60 c-3 -7 -21 -14 -41 -16 -45
-4 -53 -32 -9 -32 36 0 52 -17 52 -54 0 -37 -25 -66 -58 -66 -28 0 -62 26 -62
47 0 18 27 16 34 -3 9 -23 50 -14 54 12 5 32 -20 47 -52 33 -14 -7 -28 -10
-31 -7 -3 2 -2 26 1 51 l7 47 54 0 c39 0 54 -4 51 -12z"/>
</g>
</svg>
